<?xml version="1.0" encoding="utf-8"?>
<!-- Generator: Adobe Illustrator 21.1.0, SVG Export Plug-In . SVG Version: 6.00 Build 0)  -->
<svg version="1.1" id="Шар_1" xmlns="http://www.w3.org/2000/svg" xmlns:xlink="http://www.w3.org/1999/xlink" x="0px" y="0px"
	 viewBox="0 0 1920 1080" style="enable-background:new 0 0 1920 1080;" xml:space="preserve">
<style type="text/css">
	.st0{fill:#E8E7DD;}
	.st1{fill:url(#SVGID_1_);}
	.st2{fill:url(#SVGID_2_);}
	.st3{fill:url(#SVGID_3_);}
	.st4{fill:url(#SVGID_4_);}
	.st5{fill:#CD076D;}
	.st6{fill:none;stroke:#C3C1C0;stroke-width:3;stroke-miterlimit:10;}
	.st7{fill:#243137;}
	.st8{fill:#E5E4E3;}
	.st9{fill:#C3C1C0;}
	.st10{fill:url(#SVGID_7_);}
	.st11{fill:url(#SVGID_8_);}
	.st12{fill:none;stroke:#FFFFFF;stroke-miterlimit:10;}
	.st13{fill:#193646;}
	.st14{opacity:0.3;fill:#206051;}
	.st15{opacity:0.15;fill:#C3C1C0;}
	.st16{fill:#FFFFFF;}
	.st17{fill:#E2E2E2;stroke:#CD076D;stroke-width:2;stroke-miterlimit:10;}
	.st18{fill:#206051;}
	.st19{fill:#A7B5FE;stroke:#FFFFFF;stroke-miterlimit:10;}
	.st20{fill:#206051;stroke:#FFFFFF;stroke-miterlimit:10;}
	.st21{fill:none;stroke:#7F5CDC;stroke-width:2;stroke-miterlimit:10;}
	.st22{fill:none;stroke:#206051;stroke-miterlimit:10;}
	.st23{fill:none;stroke:#206051;stroke-width:2;stroke-miterlimit:10;}
	.st24{fill:none;stroke:#C3C1C0;stroke-width:2;stroke-miterlimit:10;}
	.st25{opacity:0.9;fill:#206051;}
	.st26{opacity:0.43;fill:#243137;}
	.st27{fill:#A2B1CE;}
	.st28{fill:#E8ECF3;}
	.st29{fill:#A7B5D1;}
	.st30{fill-rule:evenodd;clip-rule:evenodd;fill:#FFFFFF;}
	.st31{fill:#F1F3FA;}
	.st32{font-family:'Magistral-Bold';}
	.st33{font-size:38px;}
	.st34{font-family:'MagistralC';}
	.st35{font-size:30px;}
	.st36{fill:none;stroke:#CD076D;stroke-width:2;stroke-miterlimit:10;}
	.st37{clip-path:url(#SVGID_34_);fill:#FFFFFF;}
	.st38{clip-path:url(#SVGID_36_);fill:#FFFFFF;}
	.st39{fill:none;stroke:#CD076D;stroke-width:3;stroke-miterlimit:10;}
	.st40{fill:none;stroke:#606060;stroke-miterlimit:10;}
	.st41{fill:none;stroke:#FFFFFF;stroke-width:2;stroke-miterlimit:10;}
	.st42{fill:none;stroke:#CD076D;stroke-width:4;stroke-miterlimit:10;}
	.st43{fill:none;stroke:#C3C1C0;stroke-miterlimit:10;}
	.st44{clip-path:url(#SVGID_42_);}
	.st45{clip-path:url(#SVGID_46_);}
	.st46{clip-path:url(#SVGID_50_);}
	.st47{clip-path:url(#SVGID_54_);}
	.st48{clip-path:url(#SVGID_58_);}
	.st49{clip-path:url(#SVGID_62_);}
	.st50{fill:none;stroke:#243137;stroke-miterlimit:10;}
	.st51{fill:#CD076D;stroke:#243137;stroke-miterlimit:10;}
	.st52{fill:#606060;}
</style>
<rect x="-49" y="1072" class="st5" width="2124" height="1080"/>
<g>
	<text transform="matrix(1 0 0 1 165.793 92.8633)"><tspan x="0" y="0" class="st7 st32 st33">ЭТАПЫ ПРЕОБРАЖЕНИЯ </tspan><tspan x="0" y="50" class="st7 st32 st33">БРОВЕЙ И РЕСНИЧЕК VELVET </tspan></text>
</g>
<circle class="st9" cx="114" cy="93" r="36"/>
<circle class="st24" cx="316.5" cy="456.5" r="183.5"/>
<circle class="st24" cx="774.5" cy="687.5" r="183.5"/>
<circle class="st24" cx="1198.5" cy="429.5" r="183.5"/>
<circle class="st24" cx="1675.5" cy="687.5" r="183.5"/>
<g>
	<text transform="matrix(1 0 0 1 1188.4858 -834.8086)"><tspan x="0" y="0" class="st16 st34 st35">Плавный изгиб без заломов</tspan><tspan x="0" y="115" class="st16 st34 st35">Долговременное окрашивание</tspan><tspan x="0" y="230" class="st16 st34 st35">Увеличение плотности ресницы</tspan><tspan x="0" y="345" class="st16 st34 st35">Глубокий уход на отрощенные ресницы</tspan><tspan x="0" y="460" class="st16 st34 st35">Через месяц увеличение количества (до 50%) </tspan><tspan x="0" y="492" class="st16 st34 st35">и длины ресниц (до 40%) </tspan><tspan x="0" y="607" class="st16 st34 st35">Услуга для бровей, верхних и нижних ресниц</tspan></text>
</g>
<path class="st5" d="M169.2,455.6c-9.2-15.5,1.7-35.1,19.8-35.4l111-1.6l111-1.6c18-0.3,29.5,19.1,20.8,34.8l-54.1,96.9l-54.1,96.9
	c-8.8,15.7-31.3,16.1-40.5,0.6l-56.9-95.3L169.2,455.6z"/>
<path class="st5" d="M49.2,59.7c-0.5-5.6,5.3-9.6,10.4-7.2l31.5,14.9l31.5,14.9c5.1,2.4,5.7,9.5,1,12.7L95,114.7l-28.6,19.8
	c-4.6,3.2-11,0.2-11.5-5.4L52,94.4L49.2,59.7z"/>
<path class="st5" d="M1305.1,459.5c-12.2,13.3-34.2,8.3-39.5-8.9l-33.1-106l-33.1-106c-5.4-17.2,9.9-33.8,27.5-29.8l108.3,24.3
	l108.3,24.3c17.6,3.9,24.3,25.4,12.1,38.7l-75.2,81.7L1305.1,459.5z"/>
<path class="st5" d="M934.6,620.3c15.1-9.7,35.2,0.6,36,18.5l5.4,110.9l5.4,110.9c0.9,18-18.1,30.2-34.1,21.9l-98.7-50.8L749.8,781
	c-16-8.2-17.1-30.7-2-40.5l93.4-60.1L934.6,620.3z"/>
<path class="st5" d="M1726.3,762c17.5,4.5,23.5,26.1,11,39l-77.6,79.4l-77.6,79.4c-12.6,12.9-34.4,7.3-39.3-10l-30-106.9l-30-106.9
	c-4.9-17.3,10.9-33.5,28.3-29l107.6,27.4L1726.3,762z"/>
<g>
	<path class="st9" d="M300.2,376.4c0-10.9-0.7-19.2-13.4-19.2h-29v-50.8h71.1c23.6,0,36.6,13.1,36.6,36.6v217.2h-65.3V376.4z"/>
</g>
<g>
	<path class="st5" d="M349.6,545.3H343v-9.9c0-6.6-1.5-9.3-7.1-9.6v18.5h-6.2v-18.4c-5.1,0.4-6.5,3.3-6.5,9.5v9.4h-6.6v-13.6
		c0-11.1,6.1-14.3,16.5-14.3c10.4,0,16.5,3.2,16.5,14.3V545.3z"/>
	<path class="st5" d="M349.6,504h-26.4v12.3h-6.6v-33.1h6.6v12.3h26.4V504z"/>
	<path class="st5" d="M320,476.1c-2.6-1.1-3.9-2.5-3.9-6.5c0-3,0.7-5.1,3.9-6.5l29.6-12.4v8.9l-7.6,3v13.9l7.6,3v8.9L320,476.1z
		 M335.6,474.5v-9.8l-10.5,4.2c-0.5,0.2-1,0.3-1,0.7s0.5,0.5,1,0.7L335.6,474.5z"/>
	<path class="st5" d="M349.6,449.1h-28c-3.5,0-5.1-1.9-5.1-5v-21.3c0-3.1,1.6-5,5.1-5h28v8.5h-24.2c-1.7,0-2.2,0.6-2.2,2.2v9.8
		c0,1.7,0.6,2.2,2.2,2.2h24.2V449.1z"/>
</g>
<g>
	<path class="st9" d="M700.1,811.5c-16,0-31.2-12-31.2-38.4c0-15.2,4.4-32.3,18.9-41.3l112.1-68.5c13.4-8.3,14.5-18.9,14.5-29.4
		c0-19.6-6.9-25.4-26.8-25.4H684.9v-50.8h135.3c44.6,0,59.5,23.6,59.5,68.2c0,42.4-9.8,58.8-35.9,74.3l-89.6,54.4
		c-1.5,0.7-3.6,2.2-3.6,4c0,1.1,0.4,2.2,2.5,2.2h119v50.8H700.1z"/>
</g>
<g>
	<path class="st9" d="M1093.3,509.1h108.8c23.9,0,36.3-2.9,36.3-26.8c0-18.1-6.9-28.3-31.2-28.3h-107.7v-47.1h104.4
		c20.7,0,29.7-8,29.7-27.2c0-16.7-7.3-25.7-27.9-25.7h-108.8v-49.3h142.5c42.4,0,60.2,22.1,60.2,66c0,27.9-6.5,52.9-39.5,57.7v1.5
		c33.7,2.2,45,23.6,45,57.7c0,41.3-13.4,71.1-63.5,71.1h-148.3V509.1z"/>
</g>
<g>
	<path class="st9" d="M1682.9,777.3H1565c-24.7,0-32.6-18.5-32.6-43.2c0-19.9,5.1-30.5,16.7-42.1l119.3-117.5
		c10.5-10.5,24.7-15.6,42.4-15.6c20.3,0,37.4,6.5,37.4,32.6v134.9h34.8v50.8h-35.2v38.4h-64.9V777.3z M1682.9,632.9
		c0-1.1-0.4-1.5-1.5-1.5c-1.5,0-2.2,1.1-4.4,3.6l-80.1,81.6c-1.8,1.8-3.3,4.4-3.3,5.8s0,4,4.7,4h84.5V632.9z"/>
</g>
<g>
	<path class="st5" d="M736.7,757l-3.7-5.5l8.2-5.5c5.4-3.7,6.9-6.4,4-11.3l-15.4,10.3l-3.5-5.2l15.3-10.3c-3.2-4-6.3-3.6-11.6-0.1
		l-7.8,5.3l-3.7-5.5l11.3-7.6c9.2-6.2,15.3-2.9,21.1,5.8c5.8,8.6,6.6,15.5-2.6,21.7L736.7,757z"/>
	<path class="st5" d="M771,734L756.2,712l-10.2,6.9l-3.7-5.5l27.4-18.4l3.7,5.5l-10.2,6.8l14.8,21.9L771,734z"/>
	<path class="st5" d="M777.7,693.9c-0.5-2.8-0.1-4.6,3.2-6.9c2.5-1.7,4.6-2.3,7.5-0.4l26.8,17.6l-7.4,5l-6.7-4.6l-11.6,7.8l1.7,7.9
		l-7.4,5L777.7,693.9z M787.7,705.9l8.1-5.5l-9.3-6.4c-0.4-0.3-0.9-0.7-1.1-0.5s-0.1,0.7,0,1.3L787.7,705.9z"/>
	<path class="st5" d="M816.6,703.3L801,680.1c-2-2.9-1.2-5.3,1.3-7l17.6-11.9c2.5-1.7,5-1.5,7,1.4l15.6,23.2l-7.1,4.7L822,670.5
		c-0.9-1.4-1.7-1.5-3.1-0.6l-8.2,5.5c-1.4,0.9-1.5,1.7-0.6,3.1l13.5,20.1L816.6,703.3z"/>
</g>
<g>
	<path class="st5" d="M1104.9,446.6v-6.6h9.9c6.6,0,9.3-1.5,9.6-7.1h-18.5v-6.2h18.4c-0.4-5.1-3.3-6.5-9.5-6.5h-9.4v-6.6h13.6
		c11.1,0,14.3,6.1,14.3,16.5c0,10.4-3.2,16.5-14.3,16.5H1104.9z"/>
	<path class="st5" d="M1146.2,446.6v-26.4h-12.3v-6.6h33.1v6.6h-12.3v26.4H1146.2z"/>
	<path class="st5" d="M1174.1,417c1.1-2.6,2.5-3.9,6.5-3.9c3,0,5.1,0.7,6.5,3.9l12.4,29.6h-8.9l-3-7.6h-13.9l-3,7.6h-8.9L1174.1,417
		z M1175.7,432.6h9.8l-4.2-10.5c-0.2-0.5-0.3-1-0.7-1c-0.3,0-0.5,0.5-0.7,1L1175.7,432.6z"/>
	<path class="st5" d="M1201.2,446.6v-28c0-3.5,1.9-5.1,5-5.1h21.3c3.1,0,5,1.6,5,5.1v28h-8.5v-24.2c0-1.7-0.6-2.2-2.2-2.2h-9.8
		c-1.7,0-2.2,0.6-2.2,2.2v24.2H1201.2z"/>
</g>
<g>
	<path class="st5" d="M1646.7,767.2v-6.6h9.9c6.6,0,9.3-1.5,9.6-7.1h-18.5v-6.2h18.4c-0.4-5.1-3.3-6.5-9.5-6.5h-9.4v-6.6h13.6
		c11.1,0,14.3,6.1,14.3,16.5c0,10.4-3.2,16.5-14.3,16.5H1646.7z"/>
	<path class="st5" d="M1688,767.2v-26.4h-12.3v-6.6h33.1v6.6h-12.3v26.4H1688z"/>
	<path class="st5" d="M1715.9,737.7c1.1-2.6,2.5-3.9,6.5-3.9c3,0,5.1,0.7,6.5,3.9l12.4,29.6h-8.9l-3-7.6h-13.9l-3,7.6h-8.9
		L1715.9,737.7z M1717.5,753.2h9.8l-4.2-10.5c-0.2-0.5-0.3-1-0.7-1c-0.3,0-0.5,0.5-0.7,1L1717.5,753.2z"/>
	<path class="st5" d="M1742.9,767.2v-28c0-3.5,1.9-5.1,5-5.1h21.3c3.1,0,5,1.6,5,5.1v28h-8.5V743c0-1.7-0.6-2.2-2.2-2.2h-9.8
		c-1.7,0-2.2,0.6-2.2,2.2v24.2H1742.9z"/>
</g>
</svg>
